<?xml version="1.0" encoding="UTF-8" standalone="no"?>
<!-- Created with Inkscape (http://www.inkscape.org/) -->

<svg
   xmlns:dc="http://purl.org/dc/elements/1.1/"
   xmlns:cc="http://creativecommons.org/ns#"
   xmlns:rdf="http://www.w3.org/1999/02/22-rdf-syntax-ns#"
   xmlns:svg="http://www.w3.org/2000/svg"
   xmlns="http://www.w3.org/2000/svg"
   version="1.1"
   width="547.34998"
   height="95.100098"
   viewBox="0 0 547.34998 95.100098"
   id="svg144370">
  <title
     id="title144372">Export</title>
  <desc
     id="desc144374">
Creator: GL2PS 1.3.6, (C) 1999-2011 C. Geuzaine
For: Bitfighter
CreationDate: Fri Nov  7 18:36:15 2014
</desc>
  <metadata
     id="metadata145152">
    <rdf:RDF>
      <cc:Work
         rdf:about="">
        <dc:format>image/svg+xml</dc:format>
        <dc:type
           rdf:resource="http://purl.org/dc/dcmitype/StillImage" />
        <dc:title>Export</dc:title>
      </cc:Work>
    </rdf:RDF>
  </metadata>
  <defs
     id="defs144376" />
  <g
     transform="translate(-126.325,-57.450747)"
     id="g145538">
    <polyline
       transform="translate(0,33.050847)"
       points="204.025,68.2002 204.025,33.1001 204.325,31.6001 205.225,30.1001 206.725,28.8999 208.225,28.4502 209.725,28.8999 211.225,30.1001 211.975,31.6001 212.425,33.1001 212.425,111.55 211.975,113.8 211.225,115 210.175,115.75 197.875,115.75 195.625,115.45 194.425,114.7 193.675,113.5 193.675,78.3999 194.875,76.6001 196.825,75.3999 200.275,74.2002 201.025,73.8999 201.775,73.4502 203.575,71.2002 204.025,68.2002"
       id="polyline145076"
       style="fill:none;stroke:#00ff00;stroke-width:2" />
    <polyline
       transform="translate(0,33.050847)"
       points="346.075,68.2002 346.075,33.1001 346.525,31.6001 347.275,30.1001 348.775,28.8999 350.275,28.4502 351.775,28.8999 353.425,30.1001 354.175,31.6001 354.475,33.1001 354.475,111.55 354.175,113.8 353.425,115 352.225,115.75 340.075,115.75 337.675,115.45 336.625,114.7 335.875,113.5 335.875,78.3999 336.925,76.6001 338.875,75.3999 342.325,74.2002 343.075,73.8999 343.825,73.4502 345.775,71.2002 346.075,68.2002"
       id="polyline145078"
       style="fill:none;stroke:#00ff00;stroke-width:2" />
    <polyline
       transform="translate(0,33.050847)"
       points="363.625,30.3999 365.575,28.8999 367.075,28.4502 415.075,28.4502 417.325,29.6499 418.825,31.6001 419.275,34.2998 419.275,50.6499 418.525,51.7002 417.775,52.6001 416.575,52.8999 404.875,52.8999 403.225,52.1499 402.925,51.3999 402.925,50.2002 402.475,49.1499 402.475,40.75 401.425,38.7998 399.475,37.6001 396.775,37.2998 386.875,37.2998 384.625,37.6001 382.675,38.7998 381.625,40 381.175,41.0498 380.725,44.2002 380.725,103.6 381.625,105.55 382.375,106.3 383.875,107.05 387.325,107.8 406.375,107.8 407.875,107.35 410.125,106.3 411.625,103.9 412.075,100.9 412.075,82.2998 411.625,79.8999 410.575,78.1001 408.625,76.6001 405.625,75.7002 400.225,75.7002 398.275,75.3999 396.775,74.6499 395.725,73.1499 395.275,71.6499 395.725,70 396.775,68.5 398.275,67.75 400.225,67.4502 415.525,67.4502 417.775,67.75 419.725,68.9502 420.475,70.75 420.775,73.8999 420.775,111.55 420.475,112.75 420.025,113.5 419.275,114.7 418.075,115.45 416.575,115.75 415.075,116.5 367.075,116.5 365.575,116.2 364.375,115.75 363.625,115 362.875,113.8 362.575,112.75 362.125,112 362.125,35.7998 362.575,32.6499 363.625,30.3999"
       id="polyline145080"
       style="fill:none;stroke:#00ff00;stroke-width:2" />
    <polyline
       transform="translate(0,33.050847)"
       points="218.425,32.6499 218.875,30.8501 220.075,29.3501 221.875,28.4502 223.825,28.1499 272.275,28.1499 274.075,28.4502 275.575,29.3501 276.775,30.8501 277.225,32.3501 276.775,34.2998 276.025,35.3501 274.525,36.5498 272.575,36.8501 261.175,36.8501 259.225,38.0498 258.175,40 257.725,42.25 257.725,111.25 257.425,114.25 256.525,115.45 255.775,116.2 254.275,116.5 242.875,116.5 241.675,116.2 240.925,116.2 240.175,115.45 239.425,114.25 239.425,113.05 239.125,111.25 239.125,43 238.675,40.2998 237.475,38.5 235.675,37.2998 232.525,36.8501 223.825,36.8501 221.875,36.5498 220.075,35.7998 218.875,34.2998 218.425,32.6499 218.425,32.6499"
       id="polyline145082"
       style="fill:none;stroke:#00ff00;stroke-width:2" />
    <polyline
       transform="translate(0,33.050847)"
       points="431.125,28.1499 432.625,28.4502 434.125,29.3501 434.875,30.8501 435.325,32.3501 435.325,62.5 435.625,64 436.375,65.5 438.325,67 440.575,67.4502 462.025,67.4502 463.525,67 464.575,66.5498 465.775,65.7998 466.975,64.2998 467.275,62.5 467.275,33.1001 467.725,31.6001 468.475,30.1001 469.975,28.8999 471.925,28.4502 473.425,28.8999 474.925,30.1001 475.975,31.6001 476.425,33.5498 476.425,60.8501 476.875,64.2998 477.925,66.5498 479.425,67.4502 481.375,67.75 483.625,68.9502 484.825,70 485.575,71.6499 486.025,73.8999 486.025,113.5 485.575,114.25 484.375,115 482.875,115.75 469.975,115.75 469.225,115.45 468.025,114.7 467.725,113.5 467.275,111.55 467.275,79.8999 466.525,78.3999 464.575,76.6001 462.325,76.1499 448.975,76.1499 446.275,77.3501 444.775,79.1499 444.025,81.5498 444.025,113.5 443.275,115 441.775,115.75 427.975,115.75 426.925,115 426.475,113.8 426.475,112.3 426.475,32.3501 426.925,30.8501 427.675,29.3501 429.175,28.4502 431.125,28.1499"
       id="polyline145084"
       style="fill:none;stroke:#00ff00;stroke-width:2" />
    <polyline
       transform="translate(0,33.050847)"
       points="491.725,32.6499 492.025,30.8501 493.225,29.3501 495.025,28.4502 496.975,28.1499 545.425,28.1499 547.225,28.4502 548.875,29.3501 549.925,30.8501 550.375,32.3501 549.925,34.2998 549.175,35.3501 547.675,36.5498 545.725,36.8501 534.325,36.8501 532.375,38.0498 531.325,40 530.875,42.25 530.875,111.25 530.575,114.25 529.825,115.45 529.075,116.2 527.425,116.5 516.025,116.5 514.975,116.2 514.075,116.2 513.325,115.45 512.575,114.25 512.575,113.05 512.275,111.25 512.275,43 511.825,40.2998 510.775,38.5 508.825,37.2998 505.825,36.8501 496.975,36.8501 495.025,36.5498 493.225,35.7998 492.025,34.2998 491.725,32.6499"
       id="polyline145086"
       style="fill:none;stroke:#00ff00;stroke-width:2" />
    <polyline
       transform="translate(0,33.050847)"
       points="284.425,28.8999 286.675,28.1499 287.875,27.7002 325.225,27.7002 327.025,28.1499 328.225,28.8999 329.425,30.3999 329.725,32.3501 329.425,33.8501 328.225,35.3501 327.025,36.1001 325.225,36.5498 306.475,36.5498 304.225,37.6001 301.975,40 301.525,42.5498 301.525,62.5 301.975,63.5498 302.725,64.75 304.975,66.5498 308.425,67 322.825,67 325.225,67.4502 327.025,68.2002 328.675,69.25 328.975,71.2002 328.675,73.4502 327.475,74.6499 325.225,75.3999 322.825,75.7002 307.975,75.7002 305.425,76.1499 303.025,77.6499 301.525,79.6001 301.225,82.2998 301.225,112 300.775,113.5 300.025,115 298.525,115.75 297.025,116.2 295.075,115.75 293.875,115 292.825,113.5 292.375,112 292.375,73.4502 291.625,71.2002 290.125,69.7002 287.425,68.5 284.725,67.4502 283.675,66.25 282.925,64 282.475,63.25 282.475,33.1001 283.225,30.3999 284.425,28.8999"
       id="polyline145088"
       style="fill:none;stroke:#00ff00;stroke-width:2" />
    <polyline
       transform="translate(0,33.050847)"
       points="558.025,29.3501 560.275,28.1499 561.325,27.7002 597.625,27.7002 599.425,28.1499 601.375,28.8999 602.575,30.3999 602.875,32.3501 602.575,34.2998 601.375,35.3501 599.875,36.1001 597.625,36.5498 573.175,36.5498 569.425,37.2998 567.925,38.0498 565.975,40.2998 565.225,42.5498 565.225,59.3501 565.525,62.5 566.725,65.0498 567.925,65.7998 569.425,66.5498 571.225,67 596.875,67 599.125,67.4502 601.375,68.2002 602.575,69.25 602.875,71.6499 602.575,73.4502 601.075,74.9502 599.125,75.7002 581.575,75.7002 579.325,76.1499 577.075,77.3501 575.425,79.6001 575.125,82.2998 575.125,100.9 575.425,103.6 576.325,105.55 577.375,106.3 578.875,107.05 582.025,107.35 597.625,107.35 599.875,107.8 601.375,108.55 602.575,109.75 602.875,111.55 602.575,113.8 601.375,115 599.425,115.45 597.625,115.75 562.975,115.75 561.025,115.45 559.525,115.45 558.325,114.25 557.275,113.5 556.825,112.3 556.375,111.25 556.375,33.8501 556.825,31.1499 558.025,29.3501"
       id="polyline145090"
       style="fill:none;stroke:#00ff00;stroke-width:2" />
    <polyline
       transform="translate(0,33.050847)"
       points="180.775,65.0498 181.975,65.7998 184.225,66.5498 186.175,67.4502 186.925,67.75 187.975,69.7002 188.425,71.9502 188.425,110.8 187.975,112 187.675,113.05 186.475,114.25 184.525,115.45 181.975,115.75 135.775,115.75 133.075,115.45 132.025,115 130.825,114.25 129.775,112.3 129.325,109.75 129.325,33.1001 129.775,30.3999 130.825,28.8999 132.775,27.7002 135.475,27.3999 175.375,27.3999 177.775,28.8999 178.525,30.3999 178.825,32.6499 178.825,61.2998 179.275,63.5498 180.775,65.0498"
       id="polyline145092"
       style="fill:none;stroke:#00ff00;stroke-width:2" />
    <polyline
       transform="translate(0,33.050847)"
       points="168.625,38.0498 167.125,36.8501 163.675,36.1001 153.325,36.1001 152.125,36.5498 150.325,37.6001 148.825,39.5498 148.375,42.25 148.375,59.3501 148.825,62.0498 149.125,63.25 149.875,64.2998 151.825,65.7998 154.525,66.25 163.675,66.25 166.675,65.5 168.625,64 169.675,61.6001 170.125,59.0498 170.125,42.25 169.675,40 168.625,38.0498"
       id="polyline145094"
       style="fill:none;stroke:#00ff00;stroke-width:2" />
    <polyline
       transform="translate(0,33.050847)"
       points="177.325,76.6001 175.075,75.3999 172.075,74.9502 152.575,74.9502 151.375,75.3999 150.325,76.6001 148.825,78.3999 148.375,81.1001 148.375,100.15 148.825,103.15 149.125,104.35 149.875,105.55 152.575,107.05 155.575,107.35 174.625,107.05 176.275,106.6 177.325,105.55 179.275,103.15 179.575,99.7002 179.575,81.8501 178.825,78.8501 177.325,76.6001"
       id="polyline145096"
       style="fill:none;stroke:#00ff00;stroke-width:2" />
    <polyline
       transform="translate(0,33.050847)"
       points="612.025,28.4502 613.975,27.7002 615.925,27.3999 657.025,27.3999 658.225,27.7002 659.275,28.4502 660.475,30.1001 660.475,59.3501 660.775,60.8501 660.775,62.0498 661.525,64.2998 663.175,65.5 665.725,66.5498 668.425,67.4502 669.625,68.2002 670.375,70 670.675,71.9502 670.675,113.05 669.625,114.7 668.125,115.45 666.925,115.75 656.575,115.75 654.775,115.45 652.825,114.25 652.525,113.8 652.075,112.3 651.625,109.3 651.625,79.6001 650.575,77.6499 648.625,75.7002 646.375,75.3999 632.575,75.3999 630.775,76.6001 629.275,78.8501 628.825,81.5498 628.825,112.75 628.075,113.8 626.125,115.45 623.425,115.75 616.675,115.75 612.775,115.45 611.725,114.7 610.525,113.5 610.225,111.25 610.225,32.3501 610.525,30.1001 612.025,28.4502"
       id="polyline145098"
       style="fill:none;stroke:#00ff00;stroke-width:2" />
    <polyline
       transform="translate(0,33.050847)"
       points="623.425,35.7998 622.375,36.1001 620.875,36.8501 619.375,38.7998 618.475,41.5 618.475,60.1001 618.925,63.25 620.125,65.0498 622.675,66.5498 626.125,67 645.925,67 647.425,66.5498 649.075,65.7998 650.125,64.75 651.325,62.5 651.625,59.3501 651.625,41.7998 651.325,38.7998 650.575,37.6001 649.375,36.5498 647.875,36.1001 646.375,35.7998 623.425,35.7998"
       id="polyline145100"
       style="fill:none;stroke:#00ff00;stroke-width:2" />
  </g>
</svg>
